<svg xmlns="http://www.w3.org/2000/svg" xmlns:xlink="http://www.w3.org/1999/xlink" width="148" zoomAndPan="magnify" viewBox="0 0 110.88 30.000001" height="40" preserveAspectRatio="xMidYMid meet" version="1.2"><defs><clipPath id="acf9597840"><path d="M 1.730469 0 L 109.035156 0 L 109.035156 29.03125 L 1.730469 29.03125 Z M 1.730469 0 "/></clipPath><clipPath id="ab8ffea9d1"><path d="M 1.730469 7 L 30.035156 7 L 30.035156 22.210938 L 1.730469 22.210938 Z M 1.730469 7 "/></clipPath></defs><g id="13b831da2b"><g clip-rule="nonzero" clip-path="url(#acf9597840)"><path style=" stroke:none;fill-rule:nonzero;fill:#ffffff;fill-opacity:1;" d="M 1.730469 0 L 109.148438 0 L 109.148438 29.03125 L 1.730469 29.03125 Z M 1.730469 0 "/><path style=" stroke:none;fill-rule:nonzero;fill:#ffffff;fill-opacity:1;" d="M 1.730469 0 L 109.148438 0 L 109.148438 29.03125 L 1.730469 29.03125 Z M 1.730469 0 "/></g><g clip-rule="nonzero" clip-path="url(#ab8ffea9d1)"><path style=" stroke:none;fill-rule:evenodd;fill:#00bf63;fill-opacity:1;" d="M 9.710938 14.136719 C 9 13.410156 8.007812 12.949219 6.914062 12.9375 L 6.90625 12.9375 C 5.8125 12.925781 4.816406 13.359375 4.085938 14.070312 C 3.355469 14.78125 2.898438 15.773438 2.882812 16.867188 L 2.882812 16.875 C 2.871094 17.96875 3.308594 18.96875 4.015625 19.695312 L 4.019531 19.695312 C 4.730469 20.425781 5.71875 20.882812 6.816406 20.898438 L 6.820312 20.898438 C 7.914062 20.910156 8.914062 20.472656 9.644531 19.765625 L 9.640625 19.761719 C 10.371094 19.050781 10.832031 18.0625 10.84375 16.96875 L 10.84375 16.960938 C 10.84375 16.875 10.84375 16.792969 10.839844 16.710938 C 10.828125 16.453125 10.488281 16.367188 10.285156 16.40625 C 8.796875 16.703125 7.59375 16.9375 7.140625 17.050781 C 5.949219 17.34375 7.011719 16.652344 7.730469 16.371094 C 8.359375 16.121094 10.359375 15.109375 11.402344 14.570312 C 12.394531 14.035156 13.320312 13.511719 13.878906 13.160156 C 14.605469 12.703125 14.304688 12.464844 13.875 11.933594 C 13.652344 11.65625 12.207031 10.1875 12.433594 9.933594 C 12.730469 9.609375 13.347656 9.542969 13.824219 9.410156 C 16.402344 8.695312 21.472656 7.703125 23.949219 7.082031 C 24.421875 6.964844 24.671875 7.066406 24.144531 7.359375 C 23.304688 7.820312 22 8.371094 20.707031 8.917969 C 20.460938 9.023438 20.472656 9.199219 20.589844 9.375 L 22.382812 12.019531 C 22.503906 12.199219 22.867188 12.21875 23.082031 12.136719 C 23.667969 11.914062 24.300781 11.792969 24.964844 11.800781 L 24.972656 11.800781 C 26.375 11.816406 27.648438 12.40625 28.5625 13.34375 C 29.476562 14.28125 30.035156 15.5625 30.019531 16.964844 L 30.019531 16.972656 C 30 18.378906 29.410156 19.648438 28.476562 20.5625 L 28.472656 20.5625 C 27.539062 21.476562 26.253906 22.035156 24.851562 22.019531 L 24.84375 22.019531 C 23.441406 22 22.167969 21.410156 21.253906 20.476562 C 20.339844 19.539062 19.785156 18.257812 19.796875 16.851562 L 19.796875 16.847656 C 19.808594 15.824219 20.128906 14.871094 20.660156 14.078125 C 21.082031 13.449219 22.007812 14.085938 21.597656 14.699219 C 21.1875 15.320312 20.9375 16.0625 20.929688 16.859375 L 20.929688 16.867188 C 20.917969 17.960938 21.351562 18.957031 22.0625 19.6875 C 22.773438 20.417969 23.761719 20.875 24.859375 20.886719 L 24.867188 20.886719 C 25.960938 20.902344 26.957031 20.464844 27.6875 19.753906 C 28.414062 19.042969 28.875 18.054688 28.886719 16.957031 L 28.886719 16.949219 C 28.898438 15.855469 28.464844 14.855469 27.753906 14.128906 C 27.042969 13.402344 26.054688 12.941406 24.957031 12.929688 L 24.949219 12.929688 C 24.53125 12.925781 24.128906 12.984375 23.746094 13.101562 C 23.488281 13.179688 23.375 13.488281 23.496094 13.664062 L 25.425781 16.519531 C 25.597656 16.777344 25.53125 17.125 25.273438 17.300781 C 25.015625 17.472656 24.664062 17.40625 24.488281 17.148438 L 22.296875 13.90625 L 19.492188 9.757812 C 19.367188 9.578125 19.222656 9.554688 18.996094 9.652344 C 18.417969 9.910156 17.894531 10.15625 17.480469 10.382812 C 17.039062 10.621094 17.003906 10.65625 17.285156 11.003906 C 17.789062 11.621094 18.527344 12.433594 19.125 13.1875 C 19.554688 13.722656 19.894531 13.839844 19.570312 14.242188 C 19.121094 14.597656 15.59375 15.347656 12.378906 15.992188 C 12.125 16.042969 11.949219 16.328125 11.964844 16.578125 C 11.972656 16.710938 11.976562 16.839844 11.972656 16.972656 L 11.972656 16.980469 C 11.957031 18.386719 11.367188 19.65625 10.429688 20.570312 C 9.492188 21.484375 8.210938 22.042969 6.808594 22.027344 L 6.800781 22.027344 C 5.394531 22.007812 4.125 21.421875 3.210938 20.484375 L 3.210938 20.480469 C 2.296875 19.546875 1.738281 18.265625 1.753906 16.863281 L 1.753906 16.855469 C 1.773438 15.449219 2.363281 14.179688 3.296875 13.265625 L 3.296875 13.261719 C 4.230469 12.351562 5.515625 11.792969 6.917969 11.808594 L 6.925781 11.808594 C 8.332031 11.824219 9.601562 12.414062 10.519531 13.351562 C 11.179688 14.03125 10.125 14.5625 9.710938 14.136719 "/></g><g style="fill:#414141;fill-opacity:1;"><g transform="translate(32.502244, 19.596776)"><path style="stroke:none" d="M 3.265625 -5.59375 L 5.734375 -5.59375 L 5.734375 -2.125 C 5.734375 -0.65625 5 0.078125 3.53125 0.078125 L 2.40625 0.078125 C 0.925781 0.078125 0.1875 -0.65625 0.1875 -2.125 L 0.1875 -9.765625 C 0.1875 -11.234375 0.925781 -11.96875 2.40625 -11.96875 L 3.53125 -11.96875 C 4.976562 -11.96875 5.703125 -11.234375 5.703125 -9.765625 L 5.703125 -6.65625 L 3.234375 -6.65625 L 3.234375 -9.71875 C 3.234375 -9.851562 3.171875 -9.921875 3.046875 -9.921875 L 2.890625 -9.921875 C 2.765625 -9.921875 2.703125 -9.851562 2.703125 -9.71875 L 2.703125 -2.171875 C 2.703125 -2.035156 2.765625 -1.96875 2.890625 -1.96875 L 3.078125 -1.96875 C 3.203125 -1.96875 3.265625 -2.035156 3.265625 -2.171875 Z M 3.265625 -5.59375 "/></g></g><g style="fill:#414141;fill-opacity:1;"><g transform="translate(38.42722, 19.596776)"><path style="stroke:none" d="M 4.046875 0 L 1.53125 0 L 1.53125 -3.890625 L -0.140625 -11.890625 L 2.46875 -11.890625 L 2.9375 -8.0625 L 3.453125 -11.890625 L 5.703125 -11.890625 L 4.046875 -4.03125 Z M 4.046875 0 "/></g></g><g style="fill:#414141;fill-opacity:1;"><g transform="translate(43.961726, 19.596776)"><path style="stroke:none" d="M 3.265625 -5.59375 L 5.734375 -5.59375 L 5.734375 -2.125 C 5.734375 -0.65625 5 0.078125 3.53125 0.078125 L 2.40625 0.078125 C 0.925781 0.078125 0.1875 -0.65625 0.1875 -2.125 L 0.1875 -9.765625 C 0.1875 -11.234375 0.925781 -11.96875 2.40625 -11.96875 L 3.53125 -11.96875 C 4.976562 -11.96875 5.703125 -11.234375 5.703125 -9.765625 L 5.703125 -6.65625 L 3.234375 -6.65625 L 3.234375 -9.71875 C 3.234375 -9.851562 3.171875 -9.921875 3.046875 -9.921875 L 2.890625 -9.921875 C 2.765625 -9.921875 2.703125 -9.851562 2.703125 -9.71875 L 2.703125 -2.171875 C 2.703125 -2.035156 2.765625 -1.96875 2.890625 -1.96875 L 3.078125 -1.96875 C 3.203125 -1.96875 3.265625 -2.035156 3.265625 -2.171875 Z M 3.265625 -5.59375 "/></g></g><g style="fill:#414141;fill-opacity:1;"><g transform="translate(49.886702, 19.596776)"><path style="stroke:none" d="M 0.21875 -11.890625 L 2.734375 -11.890625 L 2.734375 -2.140625 L 4.453125 -2.140625 L 4.453125 0 L 0.21875 0 Z M 0.21875 -11.890625 "/></g></g><g style="fill:#414141;fill-opacity:1;"><g transform="translate(54.385603, 19.596776)"><path style="stroke:none" d="M 0.21875 -11.890625 L 4.640625 -11.890625 L 4.640625 -9.75 L 2.734375 -9.75 L 2.734375 -7.078125 L 4.5625 -7.078125 L 4.5625 -4.953125 L 2.734375 -4.953125 L 2.734375 -2.140625 L 4.671875 -2.140625 L 4.671875 0 L 0.21875 0 Z M 0.21875 -11.890625 "/></g></g><g style="fill:#414141;fill-opacity:1;"><g transform="translate(59.207073, 19.596776)"><path style="stroke:none" d=""/></g></g><g style="fill:#00bf63;fill-opacity:1;"><g transform="translate(60.536518, 19.596776)"><path style="stroke:none" d="M 3.265625 -5.59375 L 5.734375 -5.59375 L 5.734375 -2.125 C 5.734375 -0.65625 5 0.078125 3.53125 0.078125 L 2.40625 0.078125 C 0.925781 0.078125 0.1875 -0.65625 0.1875 -2.125 L 0.1875 -9.765625 C 0.1875 -11.234375 0.925781 -11.96875 2.40625 -11.96875 L 3.53125 -11.96875 C 4.976562 -11.96875 5.703125 -11.234375 5.703125 -9.765625 L 5.703125 -6.65625 L 3.234375 -6.65625 L 3.234375 -9.71875 C 3.234375 -9.851562 3.171875 -9.921875 3.046875 -9.921875 L 2.890625 -9.921875 C 2.765625 -9.921875 2.703125 -9.851562 2.703125 -9.71875 L 2.703125 -2.171875 C 2.703125 -2.035156 2.765625 -1.96875 2.890625 -1.96875 L 3.078125 -1.96875 C 3.203125 -1.96875 3.265625 -2.035156 3.265625 -2.171875 Z M 3.265625 -5.59375 "/></g></g><g style="fill:#00bf63;fill-opacity:1;"><g transform="translate(66.461494, 19.596776)"><path style="stroke:none" d="M 2.734375 -7.078125 L 3.296875 -7.078125 L 3.296875 -11.890625 L 5.796875 -11.890625 L 5.796875 0 L 3.296875 0 L 3.296875 -4.953125 L 2.734375 -4.953125 L 2.734375 0 L 0.21875 0 L 0.21875 -11.890625 L 2.734375 -11.890625 Z M 2.734375 -7.078125 "/></g></g><g style="fill:#00bf63;fill-opacity:1;"><g transform="translate(72.471347, 19.596776)"><path style="stroke:none" d="M 5.890625 0 L 3.4375 0 L 3.3125 -1.625 L 2.234375 -1.625 L 2.125 0 L -0.03125 0 L 1.3125 -11.890625 L 4.53125 -11.890625 Z M 2.78125 -8.546875 L 2.40625 -3.71875 L 3.140625 -3.71875 Z M 2.78125 -8.546875 "/></g></g><g style="fill:#00bf63;fill-opacity:1;"><g transform="translate(78.328411, 19.596776)"><path style="stroke:none" d="M 2.734375 -11.890625 L 2.734375 0 L 0.234375 0 L 0.234375 -11.890625 Z M 2.734375 -11.890625 "/></g></g><g style="fill:#00bf63;fill-opacity:1;"><g transform="translate(81.299382, 19.596776)"><path style="stroke:none" d="M 5.546875 0 L 3.265625 0 L 2.21875 -4.96875 L 2.296875 0 L 0.21875 0 L 0.21875 -11.890625 L 2.609375 -11.890625 L 3.515625 -7.359375 L 3.484375 -11.890625 L 5.546875 -11.890625 Z M 5.546875 0 "/></g></g></g></svg>